<svg xmlns="http://www.w3.org/2000/svg" xmlns:xlink="http://www.w3.org/1999/xlink" width="800" zoomAndPan="magnify" viewBox="0 0 600 195.000001" height="260" preserveAspectRatio="xMidYMid meet" version="1.0"><defs><g/></defs><g fill="#000000" fill-opacity="1"><g transform="translate(-8.976967, 187.321208)"><g><path d="M 15.472656 0.257812 L 262.546875 0.257812 L 262.546875 -33.011719 L 48.746094 -33.011719 L 48.746094 -83.046875 L 210.195312 -83.046875 L 210.195312 -116.316406 L 48.746094 -116.316406 L 48.746094 -146.75 L 262.546875 -146.75 L 262.546875 -180.019531 L 15.472656 -180.019531 Z M 15.472656 0.257812 "/></g></g></g><g fill="#000000" fill-opacity="1"><g transform="translate(269.30312, 187.321208)"><g><path d="M 49.777344 0.257812 L 49.777344 -34.300781 L 15.472656 -34.300781 L 15.472656 0.257812 Z M 49.777344 0.257812 "/></g></g></g><g fill="#000000" fill-opacity="1"><g transform="translate(334.553201, 187.321208)"><g><path d="M 225.152344 -180.535156 L 138.238281 -36.878906 L 49.003906 -180.535156 L 15.472656 -180.535156 L 15.472656 0 L 48.488281 0 L 48.488281 -118.121094 L 122.246094 0 L 154.742188 0 L 225.410156 -116.574219 L 225.410156 0 L 258.679688 0 L 258.679688 -180.535156 Z M 225.152344 -180.535156 "/></g></g></g></svg>