<svg xmlns="http://www.w3.org/2000/svg" version="1.0" viewBox="0 0 1920 1080">
    <path fill="#BFBFBF" fill-opacity=".1" d="M560.8 411.7c.7.3 1.6.2 1.9-.1.4-.3-.2-.6-1.3-.5-1.1 0-1.4.3-.6.6zm669 0c.7.3 1.6.2 1.9-.1.4-.3-.2-.6-1.3-.5-1.1 0-1.4.3-.6.6zm9 0c.7.3 1.6.2 1.9-.1.4-.3-.2-.6-1.3-.5-1.1 0-1.4.3-.6.6zm336 22c.7.3 1.6.2 1.9-.1.4-.3-.2-.6-1.3-.5-1.1 0-1.4.3-.6.6zm-33.5 76c1.5.2 3.9.2 5.5 0 1.5-.2.2-.4-2.8-.4s-4.3.2-2.7.4zm29.7.4c0 .5.5.7 1 .4.6-.3 1-.8 1-1.1 0-.2-.4-.4-1-.4-.5 0-1 .5-1 1.1zM343.4 581.5c0 4.9.1 7.1.3 4.8.2-2.3.2-6.4 0-9-.2-2.6-.3-.8-.3 4.2zm71.8 93.2c3.7.2 10 .2 14 0 4-.1 1-.3-6.7-.3s-11 .1-7.3.3zm1102.9 13.9c0 1.1.3 1.4.6.6.3-.7.2-1.6-.1-1.9-.3-.4-.6.2-.5 1.3z"/><path fill="#BFBFBF" fill-opacity=".2" d="M554.8 411.7c1.2.2 3 .2 4 0 .9-.3-.1-.5-2.3-.4-2.2 0-3 .2-1.7.4zm678.5 0c.9.2 2.5.2 3.5 0 .9-.3.1-.5-1.8-.5-1.9 0-2.7.2-1.7.5zM258.5 503c0 48.1.1 67.8.2 43.8.2-24.1.2-63.5 0-87.5-.1-24.1-.2-4.4-.2 43.7zm1319.3-69.3c.7.3 1.6.2 1.9-.1.4-.3-.2-.6-1.3-.5-1.1 0-1.4.3-.6.6zm-407.4 4.5-1.9 2.3 2.3-1.9c2.1-1.8 2.7-2.6 1.9-2.6-.2 0-1.2 1-2.3 2.2zM167.3 487.7c11.5.2 29.9.2 41 0 11.1-.1 1.8-.2-20.8-.2-22.5 0-31.6.1-20.2.2zm384.5 107c.7.3 1.6.2 1.9-.1.4-.3-.2-.6-1.3-.5-1.1 0-1.4.3-.6.6zm11 0c.7.3 1.6.2 1.9-.1.4-.3-.2-.6-1.3-.5-1.1 0-1.4.3-.6.6zm678 0c.7.3 1.6.2 1.9-.1.4-.3-.2-.6-1.3-.5-1.1 0-1.4.3-.6.6zm77 52c.7.3 1.6.2 1.9-.1.4-.3-.2-.6-1.3-.5-1.1 0-1.4.3-.6.6zm-564 3c.6.2 1.8.2 2.5 0 .6-.3.1-.5-1.3-.5-1.4 0-1.9.2-1.2.5zm120 0c.7.3 1.6.2 1.9-.1.4-.3-.2-.6-1.3-.5-1.1 0-1.4.3-.6.6zM640 654.4c0 .2.8 1 1.8 1.7 1.5 1.3 1.6 1.2.3-.4s-2.1-2.1-2.1-1.3zm653 8c0 .2.8 1 1.8 1.7 1.5 1.3 1.6 1.2.3-.4s-2.1-2.1-2.1-1.3zm-773.9 6.2c0 1.1.3 1.4.6.6.3-.7.2-1.6-.1-1.9-.3-.4-.6.2-.5 1.3zm621 0c0 1.1.3 1.4.6.6.3-.7.2-1.6-.1-1.9-.3-.4-.6.2-.5 1.3zm278.9 9.6c0 .5 8.2.7 18.3.6 18.4-.2 16.3-.6-6.1-1-6.7-.2-12.2 0-12.2.4zm-619.8.5c4.8.2 12.9.2 18 0 5.1-.1 1.2-.3-8.7-.3-9.9 0-14.1.2-9.3.3zm148 0c4.8.2 12.9.2 18 0 5.1-.1 1.2-.3-8.7-.3-9.9 0-14.1.2-9.3.3zm-149.4 3c5.6.2 14.8.2 20.5 0 5.6-.1 1-.3-10.3-.3s-15.9.2-10.2.3zm148 0c5.6.2 14.8.2 20.5 0 5.6-.1 1-.3-10.3-.3s-15.9.2-10.2.3zm477.7 0c17.2.7 34.3.7 33.8 0-.2-.4-9.5-.6-20.6-.5-11.1.1-17 .3-13.2.5z"/>
    <path fill="#BFBFBF" fill-opacity=".3" d="M276.5 495c0 43.2.1 60.8.2 39.3.2-21.6.2-57 0-78.5-.1-21.6-.2-4-.2 39.2zm218.4-59.3c-1.3 1.6-1.2 1.7.4.4 1.6-1.3 2.1-2.1 1.3-2.1-.2 0-1 .8-1.7 1.7zM1630.2 463c0 1.4.2 1.9.5 1.2.2-.6.2-1.8 0-2.5-.3-.6-.5-.1-.5 1.3zm-12.3 30.7c-1.3 1.6-1.2 1.7.4.4.9-.7 1.7-1.5 1.7-1.7 0-.8-.8-.3-2.1 1.3zm-473.8 4.9c0 1.1.3 1.4.6.6.3-.7.2-1.6-.1-1.9-.3-.4-.6.2-.5 1.3zm165.1 4.4c0 1.4.2 1.9.5 1.2.2-.6.2-1.8 0-2.5-.3-.6-.5-.1-.5 1.3zm-1141.9 1.7c11.5.2 29.9.2 41 0 11.1-.1 1.8-.2-20.8-.2-22.5 0-31.6.1-20.2.2zm976.8 3.9c0 1.1.3 1.4.6.6.3-.7.2-1.6-.1-1.9-.3-.4-.6.2-.5 1.3zm-589.3 86.1c.7.3 1.6.2 1.9-.1.4-.3-.2-.6-1.3-.5-1.1 0-1.4.3-.6.6zm5 0c.7.3 1.6.2 1.9-.1.4-.3-.2-.6-1.3-.5-1.1 0-1.4.3-.6.6zm673 0c.7.3 1.6.2 1.9-.1.4-.3-.2-.6-1.3-.5-1.1 0-1.4.3-.6.6zm5 0c.7.3 1.6.2 1.9-.1.4-.3-.2-.6-1.3-.5-1.1 0-1.4.3-.6.6zm180 0c.7.3 1.6.2 1.9-.1.4-.3-.2-.6-1.3-.5-1.1 0-1.4.3-.6.6zm5 0c.7.3 1.6.2 1.9-.1.4-.3-.2-.6-1.3-.5-1.1 0-1.4.3-.6.6zM405.4 669c0 11.8.2 16.7.3 10.7.2-5.9.2-15.5 0-21.5-.1-5.9-.3-1-.3 10.8zm187 0c0 11.8.2 16.7.3 10.7.2-5.9.2-15.5 0-21.5-.1-5.9-.3-1-.3 10.8zm453-9c0 6.9.1 9.7.3 6.2.2-3.4.2-9 0-12.5-.2-3.4-.3-.6-.3 6.3zm354 0c0 6.9.1 9.7.3 6.2.2-3.4.2-9 0-12.5-.2-3.4-.3-.6-.3 6.3zm75 9c0 11.8.2 16.7.3 10.7.2-5.9.2-15.5 0-21.5-.1-5.9-.3-1-.3 10.8zm-1007-9.5c0 5.5.1 7.6.3 4.7.2-2.9.2-7.4 0-10-.2-2.6-.3-.2-.3 5.3zm0 21.5c0 5.2.1 7.4.3 4.7.2-2.6.2-6.8 0-9.5-.2-2.6-.3-.4-.3 4.8z"/>
    <path fill="#BFBFBF" fill-opacity=".5" d="M484.2 504c0 1.4.2 1.9.5 1.2.2-.6.2-1.8 0-2.5-.3-.6-.5-.1-.5 1.3zm164.9 4.6c0 1.1.3 1.4.6.6.3-.7.2-1.6-.1-1.9-.3-.4-.6.2-.5 1.3zm829.1 24.4c0 1.4.2 1.9.5 1.2.2-.6.2-1.8 0-2.5-.3-.6-.5-.1-.5 1.3zM709.4 660.5c0 7.1.1 9.9.3 6.2.2-3.7.2-9.6 0-13-.2-3.4-.3-.4-.3 6.8zm-294.2 11.2c3.7.2 10 .2 14 0 4-.1 1-.3-6.7-.3s-11 .1-7.3.3zm337 21.3c0 1.4.2 1.9.5 1.2.2-.6.2-1.8 0-2.5-.3-.6-.5-.1-.5 1.3z"/>
    <path fill="#BFBFBF" fill-opacity=".6" d="M228.3 424c0 4.7.2 6.6.4 4.2.2-2.3.2-6.1 0-8.5-.2-2.3-.4-.4-.4 4.3zm125.1.5c0 4.9.1 7.1.3 4.8.2-2.3.2-6.4 0-9-.2-2.6-.3-.8-.3 4.2zM1478.5 474c0 31.6.1 44.6.2 28.7.2-15.8.2-41.6 0-57.5-.1-15.8-.2-2.8-.2 28.8zM228.3 496c0 4.7.2 6.6.4 4.2.2-2.3.2-6.1 0-8.5-.2-2.3-.4-.4-.4 4.3zm255.9 4c0 1.4.2 1.9.5 1.2.2-.6.2-1.8 0-2.5-.3-.6-.5-.1-.5 1.3zm-18.1.6c0 1.1.3 1.4.6.6.3-.7.2-1.6-.1-1.9-.3-.4-.6.2-.5 1.3zm165 0c0 1.1.3 1.4.6.6.3-.7.2-1.6-.1-1.9-.3-.4-.6.2-.5 1.3zm18.2 2.4c0 2.5.2 3.5.4 2.2.2-1.2.2-3.2 0-4.5-.2-1.2-.4-.2-.4 2.3zm-18.2 2.6c0 1.1.3 1.4.6.6.3-.7.2-1.6-.1-1.9-.3-.4-.6.2-.5 1.3zM466.2 507c0 1.4.2 1.9.5 1.2.2-.6.2-1.8 0-2.5-.3-.6-.5-.1-.5 1.3zm17.9.6c0 1.1.3 1.4.6.6.3-.7.2-1.6-.1-1.9-.3-.4-.6.2-.5 1.3zm1228.7 9.1c8.3.2 22.1.2 30.5 0 8.3-.1 1.5-.3-15.3-.3s-23.6.2-15.2.3zm-349.7 16.9c0 1.1.3 1.4.6.6.3-.7.2-1.6-.1-1.9-.3-.4-.6.2-.5 1.3zM1183.5 556c1 1.1 2 2 2.3 2 .3 0-.3-.9-1.3-2s-2-2-2.3-2c-.3 0 .3.9 1.3 2zm264.9 11.2-1.9 2.3 2.3-1.9c2.1-1.8 2.7-2.6 1.9-2.6-.2 0-1.2 1-2.3 2.2zm-826 1-1.9 2.3 2.3-1.9c2.1-1.8 2.7-2.6 1.9-2.6-.2 0-1.2 1-2.3 2.2zm-394 13.3c0 4.9.1 7.1.3 4.8.2-2.3.2-6.4 0-9-.2-2.6-.3-.8-.3 4.2zm328.4-3.8c.6.2 1.8.2 2.5 0 .6-.3.1-.5-1.3-.5-1.4 0-1.9.2-1.2.5zm678 0c.6.2 1.8.2 2.5 0 .6-.3.1-.5-1.3-.5-1.4 0-1.9.2-1.2.5zm185 0c.6.2 1.8.2 2.5 0 .6-.3.1-.5-1.3-.5-1.4 0-1.9.2-1.2.5zM658.4 660c0 6.9.1 9.7.3 6.2.2-3.4.2-9 0-12.5-.2-3.4-.3-.6-.3 6.3zm470 9c0 11.8.2 16.7.3 10.7.2-5.9.2-15.5 0-21.5-.1-5.9-.3-1-.3 10.8zm150 0c0 11.8.2 16.7.3 10.7.2-5.9.2-15.5 0-21.5-.1-5.9-.3-1-.3 10.8zm-804.6.7c3.4.2 8.8.2 12 0 3.1-.2.3-.3-6.3-.3s-9.2.1-5.7.3zm843 21c.7.3 1.6.2 1.9-.1.4-.3-.2-.6-1.3-.5-1.1 0-1.4.3-.6.6z"/>
    <path fill="#BFBFBF" fill-opacity=".7" d="M1380.5 475c0 32.7.1 46.1.2 29.7.2-16.3.2-43.1 0-59.5-.1-16.3-.2-2.9-.2 29.8zm196.3-58.3c.7.3 1.6.2 1.9-.1.4-.3-.2-.6-1.3-.5-1.1 0-1.4.3-.6.6zM129.5 503.5c0 47.8.1 67.6.2 43.8.2-23.7.2-62.9 0-87-.1-24.1-.2-4.7-.2 43.2zm555 0c0 47.8.1 67.6.2 43.8.2-23.7.2-62.9 0-87-.1-24.1-.2-4.7-.2 43.2zm136 0c0 47.8.1 67.6.2 43.8.2-23.7.2-62.9 0-87-.1-24.1-.2-4.7-.2 43.2zm543-29c0 31.9.1 45.1.2 29.3.2-15.8.2-41.9 0-58-.1-16.1-.2-3.2-.2 28.7zm158 29c0 47.8.1 67.6.2 43.8.2-23.7.2-62.9 0-87-.1-24.1-.2-4.7-.2 43.2zm-964.7-74.8c.6.2 1.8.2 2.5 0 .6-.3.1-.5-1.3-.5-1.4 0-1.9.2-1.2.5zm678 0c.6.2 1.8.2 2.5 0 .6-.3.1-.5-1.3-.5-1.4 0-1.9.2-1.2.5zm382.2 1.7c0 .2.8 1 1.8 1.7 1.5 1.3 1.6 1.2.3-.4s-2.1-2.1-2.1-1.3zM505.9 449.7c-1.3 1.6-1.2 1.7.4.4 1.6-1.3 2.1-2.1 1.3-2.1-.2 0-1 .8-1.7 1.7zm103.1-.3c0 .2.8 1 1.8 1.7 1.5 1.3 1.6 1.2.3-.4s-2.1-2.1-2.1-1.3zm-142.9 54.2c0 1.1.3 1.4.6.6.3-.7.2-1.6-.1-1.9-.3-.4-.6.2-.5 1.3zm87.7 74.1c.7.3 1.6.2 1.9-.1.4-.3-.2-.6-1.3-.5-1.1 0-1.4.3-.6.6zm7 0c.7.3 1.6.2 1.9-.1.4-.3-.2-.6-1.3-.5-1.1 0-1.4.3-.6.6zm671 0c.7.3 1.6.2 1.9-.1.4-.3-.2-.6-1.3-.5-1.1 0-1.4.3-.6.6zm7 0c.7.3 1.6.2 1.9-.1.4-.3-.2-.6-1.3-.5-1.1 0-1.4.3-.6.6zm221.6 1.5-1.9 2.3 2.3-1.9c2.1-1.8 2.7-2.6 1.9-2.6-.2 0-1.2 1-2.3 2.2zM413.8 647.7c4.6.2 11.8.2 16 0 4.2-.1.5-.3-8.3-.3s-12.3.2-7.7.3zm58 0c3.9.2 10.5.2 14.5 0 3.9-.1.7-.3-7.3-.3s-11.2.2-7.2.3zm127.5 0c3.7.2 9.7.2 13.5 0 3.7-.2.6-.3-6.8-.3-7.4 0-10.5.1-6.7.3zm60.4 0c.8.6 1.3 5 1.6 13.3l.3 12.5-.1-12.9c0-10.6-.3-13-1.5-13.3-1.1-.3-1.2-.2-.3.4zm46.7.6c-.2.7-.3 6.7-.1 13.3l.3 11.9.2-12.7c.1-9 .6-12.8 1.5-13.1.9-.4.9-.6-.1-.6-.7-.1-1.5.5-1.8 1.2zm336.4-.6c.7.3 1.6.2 1.9-.1.4-.3-.2-.6-1.3-.5-1.1 0-1.4.3-.6.6zm23.5 0c3.7.2 9.7.2 13.5 0 3.7-.2.6-.3-6.8-.3-7.4 0-10.5.1-6.7.3zm59.1.6c-.2.7-.3 10.5-.1 21.7l.2 20.5.3-21.2c.1-15.8.5-21.3 1.5-21.6.9-.4.9-.6-.1-.6-.7-.1-1.5.5-1.8 1.2zm150 0c-.2.7-.3 10.5-.1 21.7l.2 20.5.3-21.2c.1-15.8.5-21.3 1.5-21.6.9-.4.9-.6-.1-.6-.7-.1-1.5.5-1.8 1.2zm121.4-.6c.7.3 1.6.2 1.9-.1.4-.3-.2-.6-1.3-.5-1.1 0-1.4.3-.6.6zm79 0c.7.3 1.6.2 1.9-.1.4-.3-.2-.6-1.3-.5-1.1 0-1.4.3-.6.6zm-1002 24c3.4.2 8.8.2 12 0 3.1-.2.3-.3-6.3-.3s-9.2.1-5.7.3zm128 16c3.4.2 8.8.2 12 0 3.1-.2.3-.3-6.3-.3s-9.2.1-5.7.3zm467 0c3.4.2 8.8.2 12 0 3.1-.2.3-.3-6.3-.3s-9.2.1-5.7.3zm419 0c5.6.2 14.8.2 20.5 0 5.6-.1 1-.3-10.3-.3s-15.9.2-10.2.3zm-734 1c.7.3 1.6.2 1.9-.1.4-.3-.2-.6-1.3-.5-1.1 0-1.4.3-.6.6zm-204 2c.7.3 1.6.2 1.9-.1.4-.3-.2-.6-1.3-.5-1.1 0-1.4.3-.6.6zm324 0c.7.3 1.6.2 1.9-.1.4-.3-.2-.6-1.3-.5-1.1 0-1.4.3-.6.6zm145 0c.7.3 1.6.2 1.9-.1.4-.3-.2-.6-1.3-.5-1.1 0-1.4.3-.6.6zm152 0c.7.3 1.6.2 1.9-.1.4-.3-.2-.6-1.3-.5-1.1 0-1.4.3-.6.6zm142 0c.6.2 1.8.2 2.5 0 .6-.3.1-.5-1.3-.5-1.4 0-1.9.2-1.2.5zm60 0c.7.3 1.6.2 1.9-.1.4-.3-.2-.6-1.3-.5-1.1 0-1.4.3-.6.6z"/>
    <path fill="#BFBFBF" fill-opacity=".8" d="M1572.3 416.7c.9.2 2.3.2 3 0 .6-.3-.1-.5-1.8-.5-1.6 0-2.2.2-1.2.5zm-1124 8.3c0 4.7.2 6.6.4 4.2.2-2.3.2-6.1 0-8.5-.2-2.3-.4-.4-.4 4.3zm355.2 58c0 36.6.1 51.5.2 33.2.2-18.2.2-48.2 0-66.5-.1-18.2-.2-3.3-.2 33.3zm658-7.5c0 32.4.1 45.6.2 29.2.2-16.4.2-43 0-59-.1-16.1-.2-2.7-.2 29.8zm-907.7-46.8c.7.3 1.6.2 1.9-.1.4-.3-.2-.6-1.3-.5-1.1 0-1.4.3-.6.6zm7 0c.7.3 1.6.2 1.9-.1.4-.3-.2-.6-1.3-.5-1.1 0-1.4.3-.6.6zm671 0c.7.3 1.6.2 1.9-.1.4-.3-.2-.6-1.3-.5-1.1 0-1.4.3-.6.6zm7 0c.7.3 1.6.2 1.9-.1.4-.3-.2-.6-1.3-.5-1.1 0-1.4.3-.6.6zm-1092.3 4.6c-.3.7-.4 13.4-.2 28.2l.2 27 .3-27.7.2-27.8 40.8-.3 40.7-.2-40.8-.3c-32.1-.1-40.9.1-41.2 1.1zm1392 29.2v30h16.8l16.7.1-16.5-.3-16.5-.3-.3-29.8-.2-29.7v30zm-370.6-20.8c-1.3 1.6-1.2 1.7.4.4.9-.7 1.7-1.5 1.7-1.7 0-.8-.8-.3-2.1 1.3zm-466.4 82.8c0 36.3.1 51 .2 32.7.2-18.4.2-48.1 0-66-.1-18-.2-3-.2 33.3zm625.7-24.5c0 1.4.2 1.9.5 1.2.2-.6.2-1.8 0-2.5-.3-.6-.5-.1-.5 1.3zm-165 1c0 1.4.2 1.9.5 1.2.2-.6.2-1.8 0-2.5-.3-.6-.5-.1-.5 1.3zM146.5 538.5c0 19.2.1 27 .2 17.2.2-9.8.2-25.6 0-35-.1-9.5-.3-1.5-.2 17.8zM1327.2 506c0 1.4.2 1.9.5 1.2.2-.6.2-1.8 0-2.5-.3-.6-.5-.1-.5 1.3zm-165 1c0 1.4.2 1.9.5 1.2.2-.6.2-1.8 0-2.5-.3-.6-.5-.1-.5 1.3zm376.3 42.5c0 22.5.1 31.9.2 20.8.2-11.1.2-29.5 0-41-.1-11.4-.2-2.4-.2 20.2zm164.5-16.8c34.2.7 63.8.7 63.3 0-.2-.4-17.6-.6-38.6-.5-21 .1-32.1.4-24.7.5zm-322.9 2.9c0 1.1.3 1.4.6.6.3-.7.2-1.6-.1-1.9-.3-.4-.6.2-.5 1.3zm-79.2 32.1c-1.3 1.6-1.2 1.7.4.4.9-.7 1.7-1.5 1.7-1.7 0-.8-.8-.3-2.1 1.3zm79.6 11.3c1 1.1 2 2 2.3 2 .3 0-.3-.9-1.3-2s-2-2-2.3-2c-.3 0 .3.9 1.3 2zm-567.7 64.7c.7.3 1.6.2 1.9-.1.4-.3-.2-.6-1.3-.5-1.1 0-1.4.3-.6.6zM464.4 669c0 11.8.2 16.7.3 10.7.2-5.9.2-15.5 0-21.5-.1-5.9-.3-1-.3 10.8zm530-8.5c0 7.1.1 9.9.3 6.2.2-3.7.2-9.6 0-13-.2-3.4-.3-.4-.3 6.8zm65 8.5c0 11.8.2 16.7.3 10.7.2-5.9.2-15.5 0-21.5-.1-5.9-.3-1-.3 10.8zm289-8.5c0 7.1.1 9.9.3 6.2.2-3.7.2-9.6 0-13-.2-3.4-.3-.4-.3 6.8zM524 680.4c0 .2.8 1 1.8 1.7 1.5 1.3 1.6 1.2.3-.4s-2.1-2.1-2.1-1.3zm582.9 1.3c-1.3 1.6-1.2 1.7.4.4.9-.7 1.7-1.5 1.7-1.7 0-.8-.8-.3-2.1 1.3zm38.1-1.3c0 .2.8 1 1.8 1.7 1.5 1.3 1.6 1.2.3-.4s-2.1-2.1-2.1-1.3z"/>
    <path fill="#BFBFBF" fill-opacity=".9" d="M154.3 416.7c13.6.2 35.8.2 49.5 0 13.6-.1 2.4-.2-24.8-.2s-38.4.1-24.7.2zm109 0c2.6.2 6.7.2 9 0s.2-.3-4.8-.3c-4.9 0-6.8.1-4.2.3zm114 0c13 .2 34.4.2 47.5 0 13-.1 2.3-.2-23.8-.2s-36.8.1-23.7.2zm308.7 0c.8.3 2.2 1.1 3 1.7 1.3 1 1.3.9.1-.7-.7-.9-2.1-1.7-3-1.6-1.3 0-1.4.1-.1.6zm121.8 0c2.3.2 6.1.2 8.5 0 2.3-.2.4-.4-4.3-.4s-6.6.2-4.2.4zm139.2-.3c0 .2.7.7 1.6 1 .8.3 1.2.2.9-.4-.6-1-2.5-1.4-2.5-.6zm420.8.3c2.3.2 6.1.2 8.5 0 2.3-.2.4-.4-4.3-.4s-6.6.2-4.2.4zm98 0c2.3.2 6.1.2 8.5 0 2.3-.2.4-.4-4.3-.4s-6.6.2-4.2.4zm68.5 0c7.1.2 18.3.2 25 0 6.7-.1 1-.3-12.8-.3-13.7 0-19.2.2-12.2.3zm192.5 0c.6.2 1.8.2 2.5 0 .6-.3.1-.5-1.3-.5-1.4 0-1.9.2-1.2.5zM693 423.4c0 .2.8 1 1.8 1.7 1.5 1.3 1.6 1.2.3-.4s-2.1-2.1-2.1-1.3zm7 8c0 .2.8 1 1.8 1.7 1.5 1.3 1.6 1.2.3-.4s-2.1-2.1-2.1-1.3zm-207 7.1c-2.4 2.5-4.2 4.5-3.9 4.5.3 0 2.5-2 4.9-4.5 2.4-2.5 4.2-4.5 3.9-4.5-.3 0-2.5 2-4.9 4.5zm126.5-2.5c1 1.1 2 2 2.3 2 .3 0-.3-.9-1.3-2s-2-2-2.3-2c-.3 0 .3.9 1.3 2zm551.9 2.2-1.9 2.3 2.3-1.9c2.1-1.8 2.7-2.6 1.9-2.6-.2 0-1.2 1-2.3 2.2zm-465.4.2c0 .2.8 1 1.8 1.7 1.5 1.3 1.6 1.2.3-.4s-2.1-2.1-2.1-1.3zm-81 3.1c1.3 1.4 2.6 2.5 2.8 2.5.3 0-.5-1.1-1.8-2.5s-2.6-2.5-2.8-2.5c-.3 0 .5 1.1 1.8 2.5zm561.4 5.7-1.9 2.3 2.3-1.9c2.1-1.8 2.7-2.6 1.9-2.6-.2 0-1.2 1-2.3 2.2zm-473.4-.8c0 .2.8 1 1.8 1.7 1.5 1.3 1.6 1.2.3-.4s-2.1-2.1-2.1-1.3zm468.4 5.8-1.9 2.3 2.3-1.9c2.1-1.8 2.7-2.6 1.9-2.6-.2 0-1.2 1-2.3 2.2zm-680.5 2.5c-1.3 1.6-1.2 1.7.4.4.9-.7 1.7-1.5 1.7-1.7 0-.8-.8-.3-2.1 1.3zm218.1-1.3c0 .2.8 1 1.8 1.7 1.5 1.3 1.6 1.2.3-.4s-2.1-2.1-2.1-1.3zm-18 5c0 .2.7.7 1.6 1 .8.3 1.2.2.9-.4-.6-1-2.5-1.4-2.5-.6zm911.1 2.2c0 1.1.3 1.4.6.6.3-.7.2-1.6-.1-1.9-.3-.4-.6.2-.5 1.3zM708 465.4c0 .2.8 1 1.8 1.7 1.5 1.3 1.6 1.2.3-.4s-2.1-2.1-2.1-1.3zm24 3c0 .2.8 1 1.8 1.7 1.5 1.3 1.6 1.2.3-.4s-2.1-2.1-2.1-1.3zm-17 5c0 .2.8 1 1.8 1.7 1.5 1.3 1.6 1.2.3-.4s-2.1-2.1-2.1-1.3zm30 10c0 .2.8 1 1.8 1.7 1.5 1.3 1.6 1.2.3-.4s-2.1-2.1-2.1-1.3zm6 7c0 .2.8 1 1.8 1.7 1.5 1.3 1.6 1.2.3-.4s-2.1-2.1-2.1-1.3zm866.4 2.8-2.9 3.3 3.3-2.9c3-2.8 3.7-3.6 2.9-3.6-.2 0-1.6 1.5-3.3 3.2zm-44.6-.5c.6.2 1.8.2 2.5 0 .6-.3.1-.5-1.3-.5-1.4 0-1.9.2-1.2.5zM735 496.4c0 .2.8 1 1.8 1.7 1.5 1.3 1.6 1.2.3-.4s-2.1-2.1-2.1-1.3zm23 2c0 .2.8 1 1.8 1.7 1.5 1.3 1.6 1.2.3-.4s-2.1-2.1-2.1-1.3zm-16 6c0 .2.8 1 1.8 1.7 1.5 1.3 1.6 1.2.3-.4s-2.1-2.1-2.1-1.3zm22 1c0 .2.8 1 1.8 1.7 1.5 1.3 1.6 1.2.3-.4s-2.1-2.1-2.1-1.3zm-15 7c0 .2.8 1 1.8 1.7 1.5 1.3 1.6 1.2.3-.4s-2.1-2.1-2.1-1.3zm7 8c0 .2.8 1 1.8 1.7 1.5 1.3 1.6 1.2.3-.4s-2.1-2.1-2.1-1.3zm21 0c0 .2.8 1 1.8 1.7 1.5 1.3 1.6 1.2.3-.4s-2.1-2.1-2.1-1.3zm-14 8c0 .2.8 1 1.8 1.7 1.5 1.3 1.6 1.2.3-.4s-2.1-2.1-2.1-1.3zm698.2 7.6c0 1.4.2 1.9.5 1.2.2-.6.2-1.8 0-2.5-.3-.6-.5-.1-.5 1.3zm-671.2-.6c0 .2.8 1 1.8 1.7 1.5 1.3 1.6 1.2.3-.4s-2.1-2.1-2.1-1.3zm-20 1c0 .2.8 1 1.8 1.7 1.5 1.3 1.6 1.2.3-.4s-2.1-2.1-2.1-1.3zm26 6c0 .2.8 1 1.8 1.7 1.5 1.3 1.6 1.2.3-.4s-2.1-2.1-2.1-1.3zm-19 2c0 .2.8 1 1.8 1.7 1.5 1.3 1.6 1.2.3-.4s-2.1-2.1-2.1-1.3zm7 8c0 .2.8 1 1.8 1.7 1.5 1.3 1.6 1.2.3-.4s-2.1-2.1-2.1-1.3zm506.4 1.8-1.9 2.3 2.3-1.9c2.1-1.8 2.7-2.6 1.9-2.6-.2 0-1.2 1-2.3 2.2zM504.5 556c1 1.1 2 2 2.3 2 .3 0-.3-.9-1.3-2s-2-2-2.3-2c-.3 0 .3.9 1.3 2zm105.4.7-2.4 2.8 2.8-2.4c2.5-2.3 3.2-3.1 2.4-3.1-.2 0-1.4 1.2-2.8 2.7zm675.5 2.5-1.9 2.3 2.3-1.9c2.1-1.8 2.7-2.6 1.9-2.6-.2 0-1.2 1-2.3 2.2zM791 560.4c0 .2.8 1 1.8 1.7 1.5 1.3 1.6 1.2.3-.4s-2.1-2.1-2.1-1.3zm-164.1 2.3c-1.3 1.6-1.2 1.7.4.4.9-.7 1.7-1.5 1.7-1.7 0-.8-.8-.3-2.1 1.3zm540.6 1.3c1 1.1 2 2 2.3 2 .3 0-.3-.9-1.3-2s-2-2-2.3-2c-.3 0 .3.9 1.3 2zM798 568.4c0 .2.8 1 1.8 1.7 1.5 1.3 1.6 1.2.3-.4s-2.1-2.1-2.1-1.3zm375.5 1.6c1 1.1 2 2 2.3 2 .3 0-.3-.9-1.3-2s-2-2-2.3-2c-.3 0 .3.9 1.3 2zm-1007.2 3.7c11.4.2 30 .2 41.5 0 11.4-.1 2-.2-20.8-.2s-32.2.1-20.7.2zm125.9 0c9.2.2 24.5.2 34 0 9.5-.1 2-.3-16.7-.3s-26.5.2-17.3.3zm512.8 2.7c0 .2.8 1 1.8 1.7 1.5 1.3 1.6 1.2.3-.4s-2.1-2.1-2.1-1.3zm7 8c0 .2.8 1 1.8 1.7 1.5 1.3 1.6 1.2.3-.4s-2.1-2.1-2.1-1.3zm-13.4 55.4c-.3.5.1.9.9.9s1.2-.4.9-.9c-.3-.4-.7-.8-.9-.8-.2 0-.6.4-.9.8zm243.8 20.7c0 7.1.1 9.9.3 6.2.2-3.7.2-9.6 0-13-.2-3.4-.3-.4-.3 6.8zm354 0c0 7.1.1 9.9.3 6.2.2-3.7.2-9.6 0-13-.2-3.4-.3-.4-.3 6.8zm81 7.5c0 11.3.2 15.9.3 10.2.2-5.6.2-14.8 0-20.5-.1-5.6-.3-1-.3 10.3zM473.3 649.7c3.7.2 9.6.2 13 0 3.4-.2.4-.3-6.8-.3-7.1 0-9.9.1-6.2.3zm121.9 19 .3 19.8.2-19.2.3-19.2 12.3-.4 12.2-.3-12.7-.2-12.8-.2.2 19.7zm472.6-19c3.4.2 9 .2 12.5 0 3.4-.2.6-.3-6.3-.3-6.9 0-9.7.1-6.2.3zM408.4 661c0 6.3.1 8.9.3 5.7.2-3.1.2-8.3 0-11.5-.2-3.1-.3-.5-.3 5.8zm888.5-7.3c-1.3 1.6-1.2 1.7.4.4 1.6-1.3 2.1-2.1 1.3-2.1-.2 0-1 .8-1.7 1.7zm-446 1c-1.3 1.6-1.2 1.7.4.4.9-.7 1.7-1.5 1.7-1.7 0-.8-.8-.3-2.1 1.3zm45.1-1.3c0 .2.8 1 1.8 1.7 1.5 1.3 1.6 1.2.3-.4s-2.1-2.1-2.1-1.3zm-326 1c0 .2.8 1 1.8 1.7 1.5 1.3 1.6 1.2.3-.4s-2.1-2.1-2.1-1.3zm3 0c0 .2.8 1 1.8 1.7 1.5 1.3 1.6 1.2.3-.4s-2.1-2.1-2.1-1.3zm618 0c0 .2.8 1 1.8 1.7 1.5 1.3 1.6 1.2.3-.4s-2.1-2.1-2.1-1.3zm3 0c0 .2.8 1 1.8 1.7 1.5 1.3 1.6 1.2.3-.4s-2.1-2.1-2.1-1.3zm-746.1 13.3c-1.3 1.6-1.2 1.7.4.4 1.6-1.3 2.1-2.1 1.3-2.1-.2 0-1 .8-1.7 1.7zm396.2.9c0 1.1.3 1.4.6.6.3-.7.2-1.6-.1-1.9-.3-.4-.6.2-.5 1.3zM408.3 682c0 4.7.2 6.6.4 4.2.2-2.3.2-6.1 0-8.5-.2-2.3-.4-.4-.4 4.3zm85.7-7.6c0 .2.8 1 1.8 1.7 1.5 1.3 1.6 1.2.3-.4s-2.1-2.1-2.1-1.3zm4 2c0 .2.8 1 1.8 1.7 1.5 1.3 1.6 1.2.3-.4s-2.1-2.1-2.1-1.3zm140.4 3.8-1.9 2.3 2.3-1.9c1.2-1.1 2.2-2.1 2.2-2.3 0-.8-.8-.2-2.6 1.9zm-112.4-.8c0 .2.8 1 1.8 1.7 1.5 1.3 1.6 1.2.3-.4s-2.1-2.1-2.1-1.3zm621 0c0 .2.8 1 1.8 1.7 1.5 1.3 1.6 1.2.3-.4s-2.1-2.1-2.1-1.3zm-508.1 3.3c-1.3 1.6-1.2 1.7.4.4.9-.7 1.7-1.5 1.7-1.7 0-.8-.8-.3-2.1 1.3zm88.1-1.3c0 .2.8 1 1.8 1.7 1.5 1.3 1.6 1.2.3-.4s-2.1-2.1-2.1-1.3zm-155.1 2.3c-1.3 1.6-1.2 1.7.4.4.9-.7 1.7-1.5 1.7-1.7 0-.8-.8-.3-2.1 1.3zm621 0c-1.3 1.6-1.2 1.7.4.4 1.6-1.3 2.1-2.1 1.3-2.1-.2 0-1 .8-1.7 1.7zm-688.9-.3c0 .2.8 1 1.8 1.7 1.5 1.3 1.6 1.2.3-.4s-2.1-2.1-2.1-1.3zm807.8 5.3c.7.3 1.6.2 1.9-.1.4-.3-.2-.6-1.3-.5-1.1 0-1.4.3-.6.6zm5 0c.7.3 1.6.2 1.9-.1.4-.3-.2-.6-1.3-.5-1.1 0-1.4.3-.6.6zm-569.2 12.5c.3.5 1 .6 1.5.3 1.3-.9 1.1-1.2-.6-1.2-.8 0-1.2.4-.9.9z"/>
    <path fill="#BFBFBF" d="M544.8 413.1c-20 2.9-35.5 10.5-50 24.7-12.5 12.2-20.4 25.5-25.1 42.6-2.9 10.8-3.1 34.4-.4 45.1 2.8 10.7 11.7 27.8 18.9 36.4 11.8 14 29.3 24.8 47.3 29.2 10.7 2.7 31.3 3.2 41 1 34.3-7.6 58.9-30.3 69.2-63.8 2.4-8 2.7-10.2 2.7-25.3 0-15.1-.3-17.3-2.7-25.3-10.7-35-38.3-58.7-74.7-64.2-10.3-1.6-17.4-1.7-26.2-.4zm33 17.9c23.1 6.4 42.9 24.8 50.1 46.6 4.6 13.7 5.2 32.2 1.5 45.9-6.6 25.1-26.9 45.3-52.4 52.1-8.9 2.4-29 2.5-38 .1-19.7-5.2-38.3-20.3-47.3-38.2-5.5-11-7.2-18.9-7.2-33.5 0-16.2 1.4-22.4 8.2-36 8-16.1 22.9-29.2 40.5-35.6 12.9-4.7 30.7-5.2 44.6-1.4zm644.7-18c-13.5 2.2-25.5 6.8-37.1 14.6-17.9 11.8-31.7 31.3-37.5 52.9-3.2 11.8-3.2 33.7-.1 45.3 9 33.5 33.8 57.5 68 65.9 10.3 2.6 31.2 2.3 42.7-.5 34.1-8.5 60.1-35.6 67-70.1 2.4-11.5 1.6-32.4-1.5-43.1-5-17.3-16.7-34.9-30.1-45.4-9.3-7.3-25-15-35.9-17.6-10-2.3-27-3.3-35.5-2zm32 17.5c3.3.8 10.3 3.6 15.5 6.2 8 3.9 10.9 6.1 18.6 13.7 7.8 7.8 9.8 10.6 13.7 18.6 10.4 21.5 10.4 46.5.2 67.5-7.8 16-17.5 25.9-33 33.5-18.4 9.1-39.2 10.3-58.8 3.5-9.4-3.2-16.8-7.8-24.9-15.4-10.8-10.1-17.7-21.6-21.4-35.7-2.4-9.4-2.4-28.3 0-37.9 6.1-24.1 23.8-43.7 47-52.2 12-4.4 30-5.1 43.1-1.8zM130 503.5V590h98v-16h-82v-70h82v-16h-82v-56h82v-15h-98v86.5zm129 0V590h84v-16h-67V417h-17v86.5zm95-78.5v8h39v157h17V433h38v-16h-94v8zm331 78.5V590h16v-66.1c0-36.3.4-65.9.8-65.7.5.1 26.6 29.8 58.1 65.8s57.9 65.6 58.7 65.8c1.2.3 1.4-11.5 1.4-86.2V417h-16v66.6c0 42.8-.3 66.3-1 65.9-.5-.3-26.6-30.3-58-66.5-31.4-36.3-57.8-66-58.6-66-1.2 0-1.4 12.2-1.4 86.5zm262-86.3c-.1.2-5.6 39.1-12.3 86.5L922.4 590h7.8c7.2 0 7.8-.2 8.3-2.3.2-1.2 4.1-29.4 8.5-62.6s8.1-60.6 8.3-60.7c.1-.2 14.4 28 31.7 62.6 22 44 32 63 33.1 63 1.1 0 10.8-18.7 32.4-62.5 17-34.4 31.2-62.1 31.6-61.7.5.6 16.9 119.6 16.9 122.9 0 .9 2.3 1.3 8.1 1.3h8.2l-.6-3.3c-.2-1.7-5.8-40.7-12.2-86.5-7.8-54.7-12.2-83.2-13-83.2-.6 0-16.8 31.9-35.9 71-19.2 39-35.2 71-35.5 71-.3-.1-16.4-32-35.8-71-29.4-59.4-36.9-73.5-37.3-70.8zm417.2 64.5.3 64.8 2.7 8c8.3 24.6 24.7 37.5 49.7 39.1 28.4 1.9 49.9-13.1 58.2-40.6 2.3-7.4 2.3-8.2 2.7-71.8l.3-64.2H1462v59.7c-.1 45.6-.4 61.6-1.4 67.3-3.8 21.5-18.6 34-39.9 34-21.3-.1-36.1-13.2-39.7-35.2-.6-3.8-1-30.2-1-66.1V417h-16.1l.3 64.7zm157.8 21.7V590h16v-81.1l6.4.3 6.4.3 30.4 40 30.4 40 10.2.3 10.2.3-31.1-40.1c-17.1-22.1-30.9-40.3-30.7-40.5.2-.3 4.8-.9 10.2-1.5 17.6-2 29.1-6.7 37.8-15.7 9.2-9.5 13.2-22.8 11-37-2.8-17.7-12.3-28.5-30.8-35l-7.9-2.7-34.2-.4-34.3-.4v86.6zm72.4-67.9c11.3 4.6 17.9 14.4 18 26.5 0 15.1-6.8 23.8-22.2 28.2-5.5 1.6-10.9 2.1-29.4 2.5l-22.8.6v-60.4l25.8.3c22.6.4 26.3.6 30.6 2.3zm128.3-11.3c-1.8 4-19.9 42.7-40 85.9-20.2 43.2-36.7 78.9-36.7 79.3 0 .4 3.7.6 8.2.4l8.2-.3 13.4-28.8 13.5-28.7 38.5.2 38.6.3 13.2 28.5 13.3 28.5 8.5.3 8.6.3-4.3-9.3c-73.8-159.1-76-163.8-77.8-163.8-1.3 0-2.8 2.1-5.2 7.2zm19.3 56c7.4 16.1 14.3 30.9 15.2 33l1.7 3.8h-31c-25.9 0-31-.2-30.7-1.4.6-2.6 30.1-64.6 30.7-64.6.3 0 6.7 13.2 14.1 29.2zM800.2 639.6c-2.3 1.6-2.9 3.4-1.2 3.4.6 0 1-.6 1-1.4 0-2.6 3.8-2.9 7.6-.7 5.6 3.4 11.5 2.4 11.3-1.9 0-1.1-.4-.9-1.6.7-1.9 2.8-4.2 2.9-9 .3-4.5-2.4-5.2-2.4-8.1-.4zm-260.4 8.8c-16.6 4.8-24 18.1-16.5 29.5 3.4 5.2 10.3 9.6 16.8 11 24.6 5.3 45.8-9.7 38.5-27.2-1.8-4.4-8.7-10.2-14.5-12.2-6.3-2.2-18.5-2.8-24.3-1.1zM566 652c5.9 2.9 7.8 4.7 10.1 9.2 7.9 15.5-10.1 30.5-32.3 26.9-15.1-2.5-23.1-11.7-20.6-23.6 1.2-5.5 7.7-11.8 14.7-14 7-2.3 22.3-1.5 28.1 1.5zm180.5-4.4c-11.9 3-18.5 6.8-22.1 12.9-7.6 13.1 3.2 26.8 23.1 29.1 4.8.6 5.5.9 5.5 2.9 0 1.7.7 2.4 3 2.9 3.5.6 4.8 2.9 3 5.1-1.5 1.8-6.3 2-9.3.3-2-1-2.1-1-.8.5 2 2.5 9.3 2.3 11.6-.3 2.2-2.5 1.3-4.8-2.5-6.1-1.8-.7-3-1.8-3-2.9 0-1.4 1.2-1.8 5.9-2.3 6.1-.7 14.1-3.3 14.1-4.7 0-.4-2.4.1-5.2 1.3-7.7 3-23.1 2.9-31.1-.2-10-3.9-14.7-9.4-14.7-17.1 0-7.3 4.6-13.2 13.5-17.1 6-2.7 21-3.8 28.1-2 5.3 1.4 7.1.7 2.8-.9-3.2-1.2-18.7-2.2-21.9-1.4zm47.7 21c-7.8 11.8-13.8 21.4-13.3 21.4s2.2-2 3.8-4.5l2.8-4.5h41.4l3.1 4.5c1.7 2.5 3.5 4.5 4.1 4.5.6 0-21.2-33.9-27.5-42.7 0 0-6.5 9.5-14.4 21.3zm24.1-4.1c4.8 7.4 8.7 13.7 8.7 14 0 .3-8.6.5-19 .5h-19l9.2-14c5.1-7.7 9.8-14 10.3-14 .6 0 4.9 6.1 9.8 13.5zm45.9-16c-13.6 3.8-19.8 10.9-19 21.6.5 7.4 4 12 12.3 16.3 5.7 2.9 6.6 3.1 17 3 12 0 16.8-1.4 23.1-6.7 6.2-5.2 8.4-14.9 5-21.5-5.6-10.8-23.8-16.8-38.4-12.7zm22.5 2.1c9.9 3.3 15.3 9.6 15.3 17.8 0 12.1-10.7 19.8-27.5 19.8-16.4 0-27.5-7.7-27.5-19.1 0-8.5 5.1-14.8 14.7-18.3 6.2-2.2 18.7-2.3 25-.2zm55.5 18c-7.8 11.8-13.8 21.4-13.3 21.4s2.2-2 3.8-4.5l2.8-4.5h41.4l3.1 4.5c1.7 2.5 3.5 4.5 4.1 4.5.6 0-21.2-33.9-27.5-42.7 0 0-6.5 9.5-14.4 21.3zm24.1-4.1c4.8 7.4 8.7 13.7 8.7 14 0 .3-8.6.5-19 .5h-19l9.2-14c5.1-7.7 9.8-14 10.3-14 .6 0 4.9 6.1 9.8 13.5zm194.5-16.1c-16.6 4.8-24 18.1-16.5 29.5 3.4 5.2 10.3 9.6 16.8 11 24.6 5.3 45.8-9.7 38.5-27.2-1.8-4.4-8.7-10.2-14.5-12.2-6.3-2.2-18.5-2.8-24.3-1.1zm26.2 3.6c5.9 2.9 7.8 4.7 10.1 9.2 7.9 15.5-10.1 30.5-32.3 26.9-15.1-2.5-23.1-11.7-20.6-23.6 1.2-5.5 7.7-11.8 14.7-14 7-2.3 22.3-1.5 28.1 1.5zm116-3.1c-5.7 2-10 5.9-10 9 0 3.2 3.9 6.9 8.8 8.5 2.6.8 8.9 2.2 14.1 3.1 9.9 1.7 16.4 4.3 17.5 7 1.9 5.1-1.3 8.7-9.9 11-7.1 1.9-17.8 1.3-26.8-1.5-3.9-1.2-5.7-1.4-5.4-.7.7 2.2 10.2 3.9 22.2 4.1 11.1.1 12.3-.1 16.5-2.4 7.7-4.3 8.1-11.4.9-15-2.2-1.2-9.6-3.2-16.5-4.5-6.8-1.3-13.8-3.2-15.4-4.2-5.5-3.2-4.9-8.7 1.3-12 4.5-2.3 18.5-2.9 26.5-1 3.4.8 6.2 1.1 6.2.6 0-1.4-7.1-3-16-3.5-6.8-.4-9.6-.1-14 1.5zM406 669c0 13.3.4 21 1 21s1-3.3 1-7.9v-7.9l16.8-.4c12.1-.3 17.7-.9 20.2-2 11.2-4.9 11.6-16.9.7-21.8-3.6-1.7-6.6-2-21.9-2H406v21zm39.6-17.4c3.4 1.6 6.4 5.8 6.4 8.9 0 3.5-3.2 7.7-7.3 9.6-3.6 1.6-6.7 1.9-20.4 1.9H408v-22h17.1c13.8 0 17.8.3 20.5 1.6zm19.4 17.3c0 13.4.4 21.1 1 21.1s1-3.8 1-9.5V671h24.8l8.1 9.5c4.5 5.2 8.6 9.5 9.2 9.5.5 0-2.4-3.9-6.6-8.7-4.1-4.8-7.5-9.1-7.5-9.4 0-.4 1.9-1.2 4.3-1.8 11.4-2.8 14-13.6 4.8-19.3-3.3-2.1-5-2.3-21.3-2.6l-17.8-.4v21.1zm36-17.7c4.7 2 6.4 4.3 6.4 8.5 0 2.6-.7 4.2-2.7 5.9-4.1 3.5-8.9 4.4-23.9 4.4H467v-21.3l15.3.5c10.3.3 16.3 1 18.7 2zm92 17.9v21.2l16.3-.6c18.3-.6 24.6-2.2 30.6-7.9 10.5-9.9 6.8-24.9-7.8-31.5-2.8-1.3-7.7-1.8-21.3-2.1l-17.8-.4v21.3zm36-18c9.1 3.3 15 10.3 15 17.8 0 8-7.8 15.8-18.1 18-2.8.6-10.8 1.1-17.9 1.1h-13v-39.3l15.3.6c8.4.3 16.8 1.1 18.7 1.8zm30.2 11.7c.3 14.2.4 15 2.9 18.3 9.7 12.7 38 11.4 44.9-2.1 1.7-3.4 2-5.8 2-17.5 0-8.3-.4-13.5-1-13.5s-1 5-1 13c0 14.6-.9 18.1-5.9 22.3-8.2 6.9-27.2 6.6-35-.6-4.2-3.9-5.1-7.7-5.1-21.7 0-8.6-.4-13-1.1-13-.7 0-.9 4.7-.7 14.8zM995 662c0 16.1.7 18.3 7.1 22.9 13.5 9.8 38.2 4.7 41.9-8.8 1.3-4.8 1.3-28.1 0-28.1-.6 0-1 4.6-1 11.7-.1 15.2-.9 19-5.4 22.9-11.1 9.6-35.2 6.4-39.7-5.3-.5-1.3-.9-8.5-.9-15.9 0-8.3-.4-13.4-1-13.4s-1 5.3-1 14zm65 7.1v21.2l15.8-.6c18.9-.7 24.8-2.2 30.8-8.2 10-10 7.2-23.5-6.3-30.2-5.6-2.7-6.5-2.8-23-3.1l-17.3-.4v21.3zm35.1-18.2c5 1.5 9.9 5 12.6 9 3 4.4 3.1 12.2.4 16.7-5.1 8.3-14.1 11.4-33.3 11.4H1062v-39.3l14.8.6c8.1.3 16.3 1 18.3 1.6zM1126 669c0 13.3.4 21 1 21s1-7.7 1-21-.4-21-1-21-1 7.7-1 21zm97.1.1c7.7 11.6 14.4 20.7 14.9 20.3 2.4-2.7 27.1-40.7 26.6-41.1-.2-.3-6.3 8.3-13.5 19.1s-13.3 19.6-13.6 19.6c-.3 0-6.3-8.8-13.5-19.5s-13.5-19.5-14-19.5c-.6 0 5.3 9.5 13.1 21.1zm52.9-.1c0 13.3.4 21 1 21s1-7.7 1-21-.4-21-1-21-1 7.7-1 21zm73-7c0 16.1.7 18.3 7.1 22.9 13.5 9.8 38.2 4.7 41.9-8.8 1.3-4.8 1.3-28.1 0-28.1-.6 0-1 4.6-1 11.7-.1 15.2-.9 19-5.4 22.9-11.1 9.6-35.2 6.4-39.7-5.3-.5-1.3-.9-8.5-.9-15.9 0-8.3-.4-13.4-1-13.4s-1 5.3-1 14zm73.6 6.6c-7.6 11.3-13.5 20.9-13.2 21.2.3.3.7.3.9.1.2-.2 1.5-2.3 3-4.7l2.7-4.2h41.9l2.7 4.5c2.2 3.8 4.4 5.8 4.4 4 0-1-27.3-41.5-28-41.5-.4 0-6.9 9.3-14.4 20.6zm24.4-3.6 9 13.5-18.6.3c-10.3.1-18.9.1-19.1-.2-.8-.7 17.8-27.7 18.8-27.4.5.2 5 6.4 9.9 13.8zm28 4v21h21.5c13.7 0 21.5-.4 21.5-1s-7.5-1-20.5-1H1477v-20c0-12.7-.4-20-1-20s-1 7.7-1 21z"/>
    <path fill="#BFBFBF" fill-opacity=".4" d="M392.5 511.5c0 43.4.1 61.1.2 39.2.2-21.9.2-57.5 0-79-.1-21.6-.2-3.7-.2 39.8zm230.5-73c1.3 1.4 2.6 2.5 2.8 2.5.3 0-.5-1.1-1.8-2.5s-2.6-2.5-2.8-2.5c-.3 0 .5 1.1 1.8 2.5zm686.1 61.1c0 1.1.3 1.4.6.6.3-.7.2-1.6-.1-1.9-.3-.4-.6.2-.5 1.3zm-164.8 3.9c0 2.2.2 3 .4 1.7.2-1.2.2-3 0-4-.3-.9-.5.1-.4 2.3zm164.8 3.1c0 1.1.3 1.4.6.6.3-.7.2-1.6-.1-1.9-.3-.4-.6.2-.5 1.3zM503 553.4c0 .2.8 1 1.8 1.7 1.5 1.3 1.6 1.2.3-.4s-2.1-2.1-2.1-1.3zm809.8 93.3c.7.3 1.6.2 1.9-.1.4-.3-.2-.6-1.3-.5-1.1 0-1.4.3-.6.6zM997.4 660c0 6.9.1 9.7.3 6.2.2-3.4.2-9 0-12.5-.2-3.4-.3-.6-.3 6.3zm354 0c0 6.9.1 9.7.3 6.2.2-3.4.2-9 0-12.5-.2-3.4-.3-.6-.3 6.3zm-289 8.5c0 10.4.2 14.6.3 9.2.2-5.4.2-13.9 0-19-.1-5.1-.3-.7-.3 9.8zm270.2-16.8c-.6 1.4-.5 1.5.5.6.7-.7 1-1.5.7-1.8-.3-.3-.9.2-1.2 1.2zm-691.7 30c-1.3 1.6-1.2 1.7.4.4 1.6-1.3 2.1-2.1 1.3-2.1-.2 0-1 .8-1.7 1.7z"/>
</svg>
